<svg preserveAspectRatio="xMidYMid meet" data-bbox="0.925 16.43 96.856 66.985" viewBox="0 0 100 100" xmlns="http://www.w3.org/2000/svg" data-type="ugc" role="presentation" aria-hidden="true" aria-label="">
    <g>
        <path d="M53.67 23.41c-1.37.28-2.23 1.78-1.91 3.35.32 1.57 1.69 2.62 3.06 2.34 1.37-.28 2.23-1.78 1.91-3.35-.31-1.57-1.68-2.62-3.06-2.34" fill-rule="evenodd" clip-rule="evenodd" fill="#bf2826"></path>
        <path d="M45.04 23.41c1.37.28 2.23 1.78 1.91 3.35-.32 1.57-1.69 2.62-3.06 2.34-1.37-.28-2.23-1.78-1.91-3.35.31-1.57 1.69-2.62 3.06-2.34" fill-rule="evenodd" clip-rule="evenodd" fill="#bf2826"></path>
        <path d="m51.32 22.73-.01.02c-.04.14-.14.26-.26.33s-.26.1-.4.07l-.03-.01a.593.593 0 0 1-.35-.27.558.558 0 0 1-.07-.4v-.01l.01-.02c.02-.09.57-2.19 2.86-2.79a4.29 4.29 0 0 0 1.39-.62c.68-.46.91-.94.92-.94v-.01a.564.564 0 0 1 .77-.24l.03.02c.12.07.21.19.25.31.04.14.04.3-.04.44-.01.02-.8 1.57-3.04 2.15-1.65.43-2.03 1.94-2.03 1.97z" fill="#edd3a0" fill-rule="evenodd" clip-rule="evenodd"></path>
        <path d="m51.32 22.73-.01.02c-.04.14-.14.26-.26.33s-.26.1-.4.07l-.03-.01a.593.593 0 0 1-.35-.27.558.558 0 0 1-.07-.4v-.01l.01-.02c.02-.09.57-2.19 2.86-2.79a4.29 4.29 0 0 0 1.39-.62c.68-.46.91-.94.92-.94v-.01a.564.564 0 0 1 .77-.24l.03.02c.12.07.21.19.25.31.04.14.04.3-.04.44-.01.02-.8 1.57-3.04 2.15-1.65.43-2.03 1.94-2.03 1.97z" fill="none" stroke="#edd3a0" stroke-width=".567" stroke-miterlimit="22.926"></path>
        <path d="M47.66 23.08a.574.574 0 0 1-.26-.33l-.01-.02c-.01-.03-.38-1.53-2.04-1.96-2.24-.58-3.03-2.13-3.04-2.15a.614.614 0 0 1-.04-.44c.04-.13.13-.24.25-.32l.03-.02c.14-.07.3-.08.44-.04s.26.14.34.28v.01s.55 1.1 2.31 1.56c.78.2 1.36.58 1.78.99.8.78 1.05 1.69 1.08 1.79a.576.576 0 0 1-.41.7l-.03.01c-.14.03-.28.01-.4-.06z" fill="#edd3a0" fill-rule="evenodd" clip-rule="evenodd"></path>
        <path d="M47.66 23.08a.574.574 0 0 1-.26-.33l-.01-.02c-.01-.03-.38-1.53-2.04-1.96-2.24-.58-3.03-2.13-3.04-2.15a.614.614 0 0 1-.04-.44c.04-.13.13-.24.25-.32l.03-.02c.14-.07.3-.08.44-.04s.26.14.34.28v.01s.55 1.1 2.31 1.56c.78.2 1.36.58 1.78.99.8.78 1.05 1.69 1.08 1.79a.576.576 0 0 1-.41.7l-.03.01c-.14.03-.28.01-.4-.06z" fill="none" stroke="#edd3a0" stroke-width=".567" stroke-miterlimit="22.926"></path>
        <path d="M77.27 28.98c-10.78 3.06-19.66 8.74-21.34 9.85 1.19 1.89 2.29 1.95 3.44 2.01.75.04 1.52.08 2.36.52 2.32 1.23 3.15 1.94 4.49 3.08.39.33.82.7 1.39 1.17.94.77 2.15 1.38 3.52 1.76 1.31.37 2.77.52 4.28.41 4.18-.31 8.93-1.09 12.8-2.52 3.01-1.11 5.48-2.62 6.68-4.62 1.18-1.96 1.75-3.63 1.86-5.04.1-1.25-.17-2.3-.69-3.18-.53-.89-1.34-1.62-2.31-2.2-2.08-1.25-4.92-1.86-7.56-2.07-1.24-.1-2.53-.11-3.98.02-1.46.12-3.06.37-4.94.81m-22.05 9.43c.03-.02 9.76-6.72 21.85-10.15h.02c1.92-.44 3.56-.71 5.04-.83 1.49-.13 2.81-.12 4.1-.02 2.74.21 5.7.86 7.89 2.18 1.07.65 1.96 1.46 2.56 2.46.61 1.01.91 2.21.8 3.62-.12 1.53-.73 3.3-1.97 5.37-1.3 2.15-3.9 3.76-7.06 4.93-3.93 1.45-8.76 2.24-13 2.56-1.6.12-3.14-.05-4.54-.44-1.46-.41-2.77-1.07-3.79-1.9-.52-.43-.99-.82-1.4-1.18-1.3-1.11-2.11-1.8-4.35-2.99-.69-.37-1.38-.4-2.05-.44-1.41-.07-2.77-.14-4.22-2.67l-.17-.3.29-.2z" fill="#edd3a0"></path>
        <path d="M77.34 29.23c-5.37 1.52-10.26 3.7-14.03 5.64-3.48 1.79-6 3.37-7.02 4.04.51.75 1 1.16 1.48 1.37.52.24 1.06.26 1.61.29.39.02.78.04 1.18.11.41.07.84.2 1.29.44 2.35 1.24 3.19 1.96 4.54 3.12.19.16.38.33.62.53.21.18.46.39.76.63.46.38.98.71 1.56 1 .57.29 1.2.53 1.86.71a12.305 12.305 0 0 0 4.19.4c2.22-.17 4.61-.46 6.93-.92 2.03-.4 4.01-.92 5.8-1.58 1.56-.58 2.96-1.26 4.12-2.05 1.04-.72 1.88-1.53 2.43-2.45.57-.94.99-1.81 1.29-2.62.31-.84.48-1.61.54-2.31.05-.58.01-1.12-.1-1.61-.11-.52-.3-.99-.56-1.41-.25-.41-.55-.79-.91-1.13-.38-.36-.82-.69-1.31-.98-.95-.57-2.06-1.01-3.24-1.33-1.36-.37-2.81-.6-4.21-.71-.62-.05-1.25-.08-1.89-.07-.64 0-1.32.03-2.04.09s-1.48.16-2.28.29c-.82.13-1.68.3-2.61.51M55.4 38.88c0-.09.01-.18.01-.28l-.04.03-.08.06.05.09.06.1zm.54-.63v.26c.98-.64 3.55-2.27 7.13-4.11 3.79-1.95 8.72-4.14 14.13-5.68h.01c.94-.22 1.82-.39 2.64-.52.83-.14 1.6-.23 2.32-.29a25.06 25.06 0 0 1 4.02-.02c1.42.11 2.91.34 4.31.72 1.23.34 2.38.79 3.37 1.39.52.31.99.66 1.4 1.05.39.37.73.79 1 1.24.29.48.5 1 .62 1.57.12.54.16 1.13.11 1.77-.06.75-.24 1.56-.57 2.45-.31.84-.75 1.74-1.33 2.71-.59.98-1.48 1.85-2.58 2.61-1.19.82-2.64 1.53-4.23 2.11-1.82.67-3.82 1.2-5.88 1.6-2.34.46-4.75.76-6.99.93a12.635 12.635 0 0 1-4.37-.42c-.69-.19-1.35-.45-1.96-.75a9.23 9.23 0 0 1-1.66-1.06c-.27-.22-.52-.43-.77-.64-.21-.18-.43-.36-.63-.53-1.32-1.13-2.15-1.84-4.44-3.05-.39-.21-.77-.32-1.14-.39-.38-.07-.75-.09-1.11-.1-.6-.03-1.19-.06-1.8-.34-.55-.25-1.09-.69-1.65-1.49l-.03.34c.5.68.99 1.08 1.48 1.32.65.32 1.31.35 1.99.39.34.02.69.04 1.05.1.37.06.74.17 1.11.37 2.27 1.2 3.09 1.9 4.4 3.02.2.17.41.35.66.56.22.19.46.39.74.61.5.41 1.06.77 1.68 1.08.62.31 1.29.57 2.01.77.7.19 1.43.33 2.19.41.73.07 1.49.08 2.26.02 2.25-.17 4.67-.47 7.03-.93 2.06-.41 4.07-.93 5.89-1.61 1.63-.6 3.11-1.32 4.33-2.18 1.1-.77 1.99-1.65 2.59-2.64.6-.99 1.05-1.92 1.36-2.77.33-.89.51-1.72.57-2.48.05-.66.01-1.28-.11-1.84-.13-.59-.35-1.13-.65-1.63-.28-.47-.63-.89-1.03-1.27a7.64 7.64 0 0 0-1.45-1.09c-1-.6-2.16-1.06-3.39-1.4-1.42-.39-2.93-.63-4.38-.74-.64-.05-1.29-.08-1.95-.08-.66 0-1.36.03-2.1.09s-1.51.16-2.34.29c-.83.14-1.71.31-2.66.53h-.02c-10.32 2.94-18.93 8.28-21.18 9.74zm-2.87 6.23c-.19-.16-.39-.32-.6-.45-.96-.66-2.01-1.02-3.11-1.02s-2.14.36-3.11 1.02c-.21.14-.41.3-.61.46l.03.05c.5.79 1.08 1.42 1.72 1.85.61.4 1.26.63 1.95.63s1.35-.22 1.95-.63c.64-.43 1.23-1.06 1.72-1.85l.06-.06zm-.23-1.1c-1.07-.72-2.24-1.11-3.47-1.11s-2.4.4-3.47 1.11c-.21.14-.41.29-.61.45.03.07.07.13.1.2.19-.16.38-.3.58-.43 1.05-.72 2.2-1.11 3.4-1.11 1.2 0 2.35.4 3.4 1.11.19.13.38.27.57.43.03-.06.07-.13.1-.2-.2-.17-.4-.32-.6-.45zm1.06 1.15c.04-.07.07-.13.11-.2-.05-.05-.11-.1-.16-.15-.03.07-.07.13-.11.2.05.04.1.1.16.15zm-8.8.47c.55.87 1.21 1.56 1.95 2.04.71.46 1.49.72 2.31.72.82 0 1.6-.26 2.31-.72.73-.48 1.4-1.18 1.95-2.05l-.16-.16c-.53.84-1.16 1.52-1.86 1.99-.69.46-1.45.72-2.24.72-.79 0-1.55-.26-2.24-.72-.7-.47-1.33-1.14-1.86-1.98l-.16.16zm-.39-.66c.04.07.07.13.11.2.05-.05.11-.1.16-.15-.04-.07-.07-.13-.11-.2-.05.05-.1.1-.16.15zM58.97 58c.69.66 1.95 2.42 1.63 6.25-.13 1.58-.35 2.79-.54 3.82v.02c-.13.71-.24 1.33-.3 1.94-.08.82.05 1.84.34 2.94.32 1.21.82 2.53 1.42 3.79.62 1.29 1.35 2.52 2.12 3.55.71.95 1.43 1.71 2.11 2.14 1.06.68 3.39.34 3.45.33h.01c.03 0 .05-.02.07-.04.02-.02.02-.05.02-.08s-.02-.06-.04-.07c-.02-.02-.05-.02-.08-.02-.06.01-2.31.34-3.3-.3-.67-.43-1.39-1.19-2.09-2.14-.73-.99-1.45-2.2-2.05-3.46-.59-1.23-1.09-2.51-1.4-3.69-.29-1.1-.43-2.11-.34-2.93.06-.6.17-1.23.3-1.93v-.01c.09-.51.19-1.07.29-1.73.1-.63.18-1.33.25-2.12.35-4.16-1.15-5.95-1.83-6.54-.04.1-.04.19-.04.28zm-3.49-16.09c1.02.33 3.6 1.38 5.33 3.98.73 1.1 1.25 1.95 1.71 2.7.47.76.87 1.42 1.36 2.12.49.7 1.08 1.45 1.91 2.4 2.51 2.84 6.3 2.53 6.36 2.52.03 0 .06-.02.07-.04.02-.02.03-.05.03-.08s-.02-.06-.04-.07a.108.108 0 0 0-.07-.03c-.06 0-3.75.31-6.19-2.45-.83-.94-1.41-1.69-1.9-2.39-.49-.7-.89-1.35-1.35-2.1-.23-.38-.48-.78-.75-1.22-.27-.43-.58-.92-.96-1.48l-.04-.07a9.947 9.947 0 0 0-2.49-2.52 10.93 10.93 0 0 0-2.93-1.48c-.01.07-.03.14-.05.21zm-.5-.17c.02-.05.03-.1.05-.16 0 0-.01 0-.01.01a.18.18 0 0 0-.05.07c-.01.03-.01.06.01.08zm-.06-.67c.07-.02.15-.02.22-.02.08-.42.15-.86.2-1.31-.06-.09-.13-.19-.19-.29-.05.57-.13 1.1-.23 1.62zm.1 2.29c.43.3 1.15.82 1.79 1.46.51.51.97 1.09 1.21 1.69.01.03.03.05.06.06.03.01.06.01.08 0a.09.09 0 0 0 .06-.06c.01-.03.01-.06 0-.08-.24-.6-.71-1.19-1.22-1.71-.69-.7-1.46-1.26-1.9-1.57-.02.07-.05.14-.08.21zm-.45-.33c0 .01 0 .01.01.02.02-.05.03-.09.05-.14-.02.01-.03.02-.04.04-.02.02-.02.05-.02.08zm.01-.65a.81.81 0 0 1 .22 0l.03-.11a.615.615 0 0 1-.19-.12c-.01.08-.04.15-.06.23zm-.23 1.16a.639.639 0 0 1-.15-.13l-.12.27c.06.05.11.1.17.15.04-.09.08-.19.12-.28l-.02-.01zm18.76-26.58zm-17.5 18.03c.55-.99 1.01-1.82 1.41-2.5.47-.82.85-1.43 1.17-1.9.3-.44.55-.74.78-.95.25-.23.47-.35.72-.42 1.28-.37 2.04-.76 2.56-1.19.49-.41.79-.87 1.1-1.4l.04-.06c.38-.63.82-1.35 1.77-2.2.76-.68 1.37-1.13 1.89-1.45.52-.32.95-.52 1.34-.69.65-.29 1.2-.55 1.9-1.22.71-.69 1.58-1.82 2.85-3.88v-.01c.02-.03.02-.06.01-.08-.01-.03-.02-.05-.04-.06l-.01-.01c-.02-.01-.05-.01-.07-.01-.03.01-.05.02-.06.04-1.24 2.01-2.08 3.12-2.77 3.79-.71.7-1.25.94-1.88 1.23-.4.18-.84.38-1.36.7-.52.32-1.15.78-1.92 1.48-.96.87-1.41 1.61-1.8 2.25v.01c-.64 1.05-1.13 1.84-3.57 2.55-.26.08-.49.19-.74.41-.26.23-.54.56-.88 1.05-.32.47-.7 1.08-1.17 1.9-.37.64-.8 1.4-1.3 2.31-.01.1.01.21.03.31zm-.41.65c-.02-.09-.03-.18-.05-.27l-.06.11c-.01.03-.02.06-.01.08.01.03.02.05.05.06.03.02.05.02.07.02zm2.72 25.3c.04 0 .07 0 .11.01.04.01.07.02.1.03.15-.89.25-1.81.29-2.75a.635.635 0 0 0-.15-.1l-.02-.01c-.02-.01-.03-.02-.05-.03-.02.97-.12 1.93-.28 2.85zm-.16.86c.07-.04.15-.09.22-.14.02-.01.04-.04.04-.06v-.02c0-.03 0-.05-.02-.07-.02-.02-.04-.04-.07-.04-.03 0-.06 0-.08.02l-.04.02c-.01.09-.03.19-.05.29zm-16.37-.54c1.21.42 2.15.59 2.95.62.96.04 1.74-.13 2.56-.3.4-.08.81-.17 1.26-.24.45-.06.94-.11 1.49-.1.59 0 1.42.2 2.34.42 1.69.39 3.68.86 5.16.39.02-.08.04-.16.05-.25-.62.22-1.34.26-2.11.2-1.01-.08-2.09-.33-3.06-.56h-.01c-.93-.22-1.77-.41-2.39-.42-1.12-.01-1.98.17-2.79.34h-.01c-.79.17-1.55.33-2.51.29-.82-.03-1.78-.21-3.01-.65.05.09.07.18.08.26zm-.75-.29c.06.02.12.05.18.07-.01-.08-.03-.17-.04-.25l-.06-.02c-.03-.01-.06-.01-.08 0a.09.09 0 0 0-.06.06c-.01.02-.01.03-.01.05 0 .01 0 .01.01.02.01.04.04.06.06.07zm15.22 6.02h.19c.03 0 .06-.01.08-.03 0 0 .01-.01.01-.02l.01-.01c.01-.01.01-.03.01-.05 0-.03-.01-.06-.03-.07a.114.114 0 0 0-.08-.03h-.06c-.05.06-.09.14-.13.21zm-12.45-.11c.63.1 1.17.1 1.66.05.69-.07 1.3-.25 1.93-.44.84-.25 1.71-.51 2.89-.5.59 0 1.42.2 2.34.42h.01c.97.23 2.03.48 3.04.56l.12-.21c-.41-.03-.82-.09-1.24-.16-.64-.11-1.28-.26-1.88-.4-.93-.22-1.77-.42-2.39-.42-1.21-.01-2.09.26-2.95.51-1.07.32-2.09.63-3.66.36.04.07.08.15.13.23zm-.89-.22c.01.02.04.04.07.05.05.01.1.02.15.04-.04-.08-.09-.17-.13-.25-.02 0-.03.01-.05.01-.02.01-.04.04-.05.07-.01.03-.01.06.01.08zm12.44.8c-.97-.1-1.95-.33-2.85-.54h-.01c-.9-.21-1.7-.4-2.23-.4-1.09-.01-1.93.24-2.73.48-.65.19-1.28.38-2.02.46-.41.04-.86.05-1.36 0 .73 1.11 1.57 2.01 2.49 2.64.96.66 2.01 1.02 3.11 1.02 1.09 0 2.14-.36 3.11-1.02.92-.64 1.77-1.53 2.49-2.64zm1.28-1.18c.07.02.13.06.19.1.55-1.1 1-2.33 1.34-3.66l.09-.38c-.08.04-.16.08-.25.11-.02.07-.03.13-.05.19-.33 1.32-.78 2.54-1.32 3.64zm-13.29-.24c1.68.38 2.73.07 3.82-.26.89-.27 1.81-.54 3.11-.53.68.01 1.55.21 2.51.43.59.14 1.22.29 1.85.4.49.09.97.15 1.43.17.56-1.08 1.01-2.29 1.36-3.61-1.57.37-3.49-.08-5.14-.47-.9-.21-1.7-.4-2.23-.4-.52 0-.98.04-1.41.1-.43.06-.83.15-1.23.23-.85.18-1.66.35-2.68.31-.79-.03-1.69-.18-2.82-.55.05.22.1.44.16.66.31 1.28.75 2.46 1.27 3.52zm-.77.1c.03-.03.07-.05.1-.08a.3.3 0 0 1 .08-.04c-.49-1.03-.89-2.16-1.2-3.38-.08-.33-.16-.66-.23-.99l-.24-.09c.08.39.16.78.26 1.15.32 1.24.73 2.39 1.23 3.43zm16.27-9.18c0-.01-.01-.02-.01-.02a.116.116 0 0 0-.07-.05c-.03-.01-.06 0-.08.02-.02.01-.03.02-.05.03v.11c.06-.04.12-.07.19-.09h.02zm-17.44-.13c1.3.44 2.29.6 3.14.62.98.01 1.78-.18 2.6-.37.86-.21 1.75-.42 2.94-.41.31 0 .69.05 1.11.13.4.07.85.17 1.31.28l.03.01c1.82.41 3.99.89 5.55.35v-.23c-1.51.57-3.68.08-5.51-.33l-.03-.01c-.97-.22-1.84-.41-2.48-.41-1.22-.01-2.13.21-2.99.41h-.01c-.8.19-1.57.38-2.54.36-.85-.01-1.85-.18-3.14-.62.02.07.02.15.02.22zm-.73-.29c.01.02.03.05.06.06l.14.05v-.23l-.07-.03c-.03-.01-.06-.01-.08 0-.02.01-.05.03-.06.06 0 .01-.01.02-.01.03.02.03.02.04.02.06zm17.42 1.44c-1.67.49-3.8.02-5.62-.38l-.03-.01c-.47-.11-.92-.21-1.33-.28-.39-.07-.74-.12-1.02-.12-1.13-.01-1.99.2-2.82.39-.86.21-1.68.4-2.73.39-.86-.01-1.86-.17-3.13-.59.01 1.04.1 2.06.24 3.03 1.31.49 2.29.69 3.12.72.89.03 1.62-.12 2.38-.28.84-.18 1.72-.36 2.91-.35.68.01 1.54.21 2.5.43h.01c.95.22 2.01.47 2.98.55.83.07 1.61.01 2.19-.3.18-1.02.3-2.09.35-3.2zm.53-1.61a.81.81 0 0 1 .22 0c-.05-1.75-.29-3.42-.68-4.96-.46-1.81-1.13-3.43-1.96-4.79-.43-.71-.91-1.34-1.42-1.89-.04.07-.07.13-.11.2.48.53.94 1.14 1.35 1.81.82 1.35 1.49 2.96 1.94 4.75.38 1.51.61 3.16.66 4.88zm-17.2-.31c1.31.46 2.3.63 3.13.65.91.01 1.65-.16 2.42-.35h.01c.9-.22 1.83-.44 3.12-.43.7.01 1.61.21 2.61.43l.03.01c1.83.41 4.02.89 5.36.26-.03-1.78-.26-3.47-.65-5.02-.44-1.74-1.08-3.3-1.88-4.6-.37-.6-.76-1.14-1.19-1.62-.58.88-1.27 1.59-2.03 2.09-.8.52-1.67.81-2.6.81-.93 0-1.8-.29-2.6-.81-.76-.5-1.45-1.21-2.03-2.08-.42.48-.82 1.02-1.18 1.61-.8 1.3-1.44 2.86-1.88 4.6-.35 1.38-.57 2.88-.64 4.45zm-.73-.2c.07-.01.14-.01.22.01.08-1.55.3-3.02.65-4.39.45-1.79 1.12-3.4 1.94-4.75.41-.67.86-1.27 1.34-1.8-.04-.07-.08-.13-.11-.2-.51.55-.98 1.18-1.41 1.88-.83 1.36-1.5 2.98-1.96 4.79-.37 1.4-.59 2.9-.67 4.46zm6.15 15.22-.14-.14-.01-.01a.114.114 0 0 0-.08-.03c-.02 0-.04.01-.05.02.09.06.18.11.28.16zm4.82 1c-.3.31-.59.62-.79.86-.03.04-.06.07-.1.11-.04.03-.07.07-.11.1-.13.1-.27.18-.42.23-.15.06-.31.09-.48.1h-.03a1.646 1.646 0 0 1-.9-.33c-.04-.03-.08-.06-.11-.1-.04-.03-.07-.07-.1-.11-.2-.24-.5-.56-.8-.87-.16-.05-.31-.11-.47-.17.11.11.22.23.34.35.29.3.57.6.76.83.04.04.07.08.11.12.04.04.09.08.13.11.15.11.31.2.49.27.17.06.36.1.54.11h.02c.18-.01.36-.05.54-.11.18-.06.35-.15.49-.27.05-.04.09-.07.13-.11.04-.04.08-.08.11-.12.19-.23.47-.53.76-.83.11-.11.22-.23.33-.34-.13.07-.28.13-.44.17zm1.22-1.17c-.03 0-.06.01-.08.03l-.16.16c.1-.05.2-.11.3-.17-.01-.02-.03-.02-.06-.02zm-4.12 1.39c.1.11.19.21.27.31.02.02.04.05.06.07.02.02.05.04.07.06.08.06.18.12.28.15.1.04.2.06.31.07.11-.01.21-.03.31-.07.1-.04.2-.09.28-.15.02-.02.05-.04.07-.06.02-.02.04-.04.06-.07l.27-.3c-.32.05-.65.08-.98.08-.34-.01-.68-.03-1-.09zm-.99-1.03.34.34c.53.16 1.08.24 1.65.24.56 0 1.1-.08 1.63-.24.11-.12.23-.23.33-.34-.63.23-1.29.36-1.96.36-.69.01-1.35-.12-1.99-.36zm-1.66-.64c.01-.02.03-.03.04-.05.04-.04.08-.07.12-.1-1.05-.73-1.99-1.79-2.79-3.09l-.02-.03c-.09-.02-.19-.04-.29-.06.04.07.08.14.12.2.82 1.31 1.77 2.38 2.82 3.13zm7.11-.15c.04.03.08.06.11.09.02.02.03.04.05.06 1.06-.75 2.01-1.81 2.81-3.12-.08 0-.17 0-.25-.01-.78 1.25-1.7 2.27-2.72 2.98zM35.4 34.87c-3.76-1.93-8.66-4.11-14.03-5.64-.93-.21-1.79-.39-2.6-.52-.8-.13-1.56-.23-2.28-.29-.72-.06-1.4-.09-2.04-.09-.64 0-1.27.03-1.89.07-1.4.11-2.85.33-4.21.71-1.18.32-2.29.76-3.24 1.33-.49.29-.93.62-1.31.98-.36.34-.67.72-.91 1.13-.26.43-.45.9-.56 1.41-.11.49-.14 1.03-.1 1.61.06.7.23 1.47.54 2.31.3.81.72 1.68 1.29 2.62.55.92 1.39 1.73 2.43 2.45 1.15.8 2.56 1.48 4.12 2.05 1.79.66 3.77 1.18 5.8 1.58 2.32.46 4.71.75 6.93.92.73.05 1.44.05 2.13-.02.71-.07 1.4-.2 2.06-.38.67-.19 1.29-.43 1.86-.71.57-.29 1.1-.62 1.56-1 .3-.24.54-.45.76-.63.24-.2.44-.37.62-.53 1.35-1.16 2.19-1.88 4.54-3.12.45-.24.87-.36 1.29-.44.4-.07.79-.09 1.18-.11.55-.03 1.09-.05 1.61-.29.48-.22.97-.62 1.48-1.37-1.03-.66-3.55-2.24-7.03-4.03zm8.64 3.6.08.05-.07.13c.03 1.05.18 2.06.42 2.98.16.61.36 1.18.59 1.71.18-.14.36-.28.55-.4 1.15-.78 2.43-1.2 3.76-1.2 1.34 0 2.61.43 3.76 1.2.18.12.36.25.54.39.23-.53.43-1.1.58-1.7.24-.92.39-1.93.42-2.98l-.07-.13c.02-.01.05-.03.08-.05v-.29c0-1.23-.15-2.39-.43-3.45-.28-1.1-.7-2.08-1.22-2.91-.5-.79-1.08-1.42-1.72-1.85-.61-.4-1.27-.63-1.95-.63-.69 0-1.35.22-1.95.63-.64.43-1.23 1.06-1.72 1.85-.52.82-.93 1.81-1.22 2.91-.27 1.06-.43 2.23-.43 3.45v.29zm-1.27-.22c-2.24-1.46-10.85-6.8-21.2-9.73h-.02c-.95-.22-1.84-.4-2.66-.53-.82-.13-1.6-.23-2.34-.29-.74-.06-1.44-.09-2.1-.09-.66 0-1.31.03-1.95.08-1.45.11-2.96.35-4.38.74-1.23.34-2.39.8-3.4 1.4-.53.3-1.02.67-1.44 1.07-.4.38-.75.81-1.03 1.27-.3.49-.52 1.04-.65 1.63-.12.56-.17 1.18-.11 1.84.06.76.24 1.58.57 2.48.32.86.76 1.78 1.36 2.77.6 1 1.49 1.87 2.59 2.64 1.22.85 2.7 1.57 4.33 2.18 1.82.67 3.84 1.2 5.89 1.61 2.36.46 4.78.77 7.03.93.77.06 1.53.05 2.26-.02.76-.07 1.49-.21 2.19-.41.72-.2 1.39-.46 2.01-.77.62-.31 1.18-.67 1.68-1.08.28-.22.52-.43.74-.61.25-.21.46-.39.66-.56 1.31-1.12 2.13-1.82 4.4-3.02.38-.2.75-.31 1.11-.37.35-.06.7-.08 1.05-.1.68-.03 1.34-.07 1.99-.39.48-.24.97-.64 1.48-1.32l-.03-.34c-.56.8-1.1 1.24-1.65 1.49-.61.28-1.2.31-1.8.34-.36.02-.73.04-1.11.1-.37.07-.74.18-1.14.39-2.29 1.21-3.12 1.92-4.44 3.05-.2.17-.41.35-.63.53-.24.2-.49.42-.77.64-.49.4-1.04.75-1.66 1.06-.61.3-1.26.56-1.96.75a12.635 12.635 0 0 1-4.37.42 60.47 60.47 0 0 1-6.99-.93c-2.05-.4-4.06-.93-5.88-1.6-1.59-.59-3.04-1.29-4.23-2.11-1.1-.76-1.99-1.63-2.58-2.61-.58-.97-1.02-1.87-1.33-2.71-.33-.89-.51-1.7-.57-2.45-.05-.64-.01-1.22.11-1.77.12-.57.34-1.1.62-1.57.27-.45.61-.87 1-1.24.41-.39.88-.74 1.4-1.05.99-.6 2.15-1.05 3.37-1.39 1.4-.38 2.88-.61 4.31-.72.62-.05 1.26-.08 1.93-.07.67 0 1.36.03 2.09.09.73.06 1.5.16 2.32.29.82.13 1.7.31 2.64.52h.01c5.41 1.54 10.34 3.73 14.13 5.68 3.58 1.84 6.15 3.47 7.13 4.11.02-.08.02-.16.02-.25zm.57.38-.04-.03c0 .09.01.18.01.28l.06-.11.05-.09-.08-.05zm-2.83 19.44c-.02.02-.04.03-.06.04l-.02.01s-.05.03-.13.09c.03.7.1 1.39.19 2.06.07-.02.14-.03.21-.03-.1-.7-.16-1.43-.19-2.17zm-.76-.36c-.68.58-2.2 2.36-1.85 6.56.07.79.15 1.49.25 2.12.1.66.2 1.21.29 1.73v.01c.13.71.24 1.33.3 1.94.08.81-.05 1.83-.34 2.93-.31 1.18-.8 2.46-1.4 3.69-.61 1.26-1.32 2.47-2.05 3.46-.7.95-1.42 1.7-2.09 2.14-.99.64-3.24.31-3.3.3-.03 0-.06 0-.08.02-.02.02-.04.04-.04.07 0 .03 0 .06.02.08.01.02.04.03.06.04h.01c.06.01 2.39.35 3.45-.33.67-.43 1.4-1.19 2.11-2.14.76-1.02 1.5-2.26 2.12-3.55.61-1.26 1.11-2.57 1.42-3.79.29-1.11.42-2.13.34-2.94-.06-.61-.18-1.24-.31-1.95v-.01c-.19-1.04-.41-2.25-.54-3.83-.33-3.86.95-5.61 1.64-6.26 0-.1-.01-.2-.01-.29zm3.82-16.66c.08-.01.15 0 .22.02-.1-.52-.18-1.05-.23-1.61-.06.1-.13.19-.19.29.05.45.12.88.2 1.3zm-.39.65c-.38.12-.97.34-1.67.71-1.18.62-2.63 1.65-3.75 3.3l-.04.07c-.38.57-.69 1.05-.96 1.48-.28.44-.52.84-.75 1.22-.46.76-.86 1.4-1.35 2.1-.49.7-1.07 1.44-1.9 2.39-2.43 2.76-6.12 2.46-6.19 2.45-.03 0-.06.01-.08.03-.02.02-.03.04-.04.07 0 .03.01.06.03.08.02.02.04.03.07.04.06 0 3.86.32 6.36-2.52.84-.95 1.42-1.7 1.91-2.4s.89-1.36 1.36-2.12c.23-.37.47-.77.75-1.21.28-.45.6-.94.96-1.48 1.74-2.61 4.32-3.65 5.33-3.98-.01-.09-.03-.16-.04-.23zm.55.05c.02-.03.03-.06.02-.09a.116.116 0 0 0-.05-.07l-.01-.01c.01.06.02.12.04.17zm.18.63c.07-.02.15-.02.22-.01-.02-.07-.05-.15-.07-.22a.76.76 0 0 1-.19.12l.04.11zm.6 1.04c-.04.05-.09.09-.15.13l-.02.01c.04.1.09.19.13.29.06-.05.11-.1.17-.15-.05-.1-.09-.19-.13-.28zm-.9-.27c-.44.3-1.21.87-1.9 1.57-.51.52-.98 1.11-1.22 1.71-.01.03-.01.06 0 .08.01.03.03.05.06.06.03.01.06.01.08 0 .02-.01.05-.03.06-.06.24-.6.7-1.18 1.21-1.69.64-.64 1.35-1.16 1.79-1.46-.03-.07-.05-.14-.08-.21zm.52-.1c0-.01 0-.01.01-.02.01-.03 0-.06-.01-.08-.01-.02-.03-.03-.04-.04.01.04.02.09.04.14zm-.48-6.9c-.07.01-.15.02-.22.01-.08.59-.13 1.19-.13 1.81.09.06.16.11.22.14-.01-.67.04-1.33.13-1.96zm.08-1.55.15.28c.02-.1.05-.19.07-.28.3-1.15.74-2.19 1.28-3.05.53-.85 1.17-1.53 1.88-2.01.69-.46 1.45-.72 2.24-.72.79 0 1.55.26 2.24.72.71.47 1.34 1.16 1.88 2.01.54.87.98 1.9 1.28 3.05.02.09.05.19.07.28l.15-.28-.02-.08c-.3-1.17-.75-2.22-1.3-3.1-.56-.9-1.24-1.62-1.99-2.11-.71-.46-1.49-.72-2.31-.72-.82 0-1.6.26-2.31.72-.75.49-1.42 1.21-1.99 2.11-.55.88-1 1.93-1.3 3.1l-.02.08zm-.78 1.2c-.69-1.25-1.25-2.25-1.71-3.05-.47-.81-.84-1.41-1.15-1.86-.28-.41-.5-.68-.71-.86-.18-.17-.34-.25-.51-.3-1.36-.39-2.18-.82-2.75-1.29-.58-.48-.9-1-1.26-1.59-.18-.3-.38-.62-.64-.97-.26-.34-.58-.71-1.03-1.11-.73-.66-1.32-1.09-1.81-1.4-.49-.3-.9-.49-1.28-.66-.69-.31-1.28-.58-2.05-1.32-.74-.72-1.64-1.89-2.94-3.99l-.01-.01a.603.603 0 0 1-.07-.47c.04-.16.13-.3.28-.39l.01-.01c.15-.09.31-.11.47-.07.16.04.3.13.39.28l.01.01c1.21 1.96 2.03 3.04 2.69 3.69.64.63 1.14.86 1.73 1.13.41.19.86.39 1.42.74.55.34 1.2.81 2 1.53 1.02.92 1.49 1.69 1.9 2.36l.01.01c.58.95 1.02 1.67 3.27 2.32.33.1.63.25.94.51.3.26.61.62.97 1.15.33.48.72 1.11 1.2 1.93.31.53.65 1.14 1.04 1.84.31-1.04.73-1.99 1.24-2.8.6-.96 1.33-1.73 2.15-2.27.8-.52 1.67-.81 2.6-.81.93 0 1.8.29 2.6.81.82.53 1.54 1.31 2.15 2.27.51.81.93 1.76 1.24 2.8.39-.7.74-1.31 1.04-1.84.48-.83.86-1.45 1.2-1.93.36-.53.67-.89.97-1.15.31-.27.61-.42.94-.51 2.26-.66 2.7-1.38 3.28-2.33l.01-.01c.41-.67.88-1.44 1.9-2.36.8-.72 1.45-1.19 2-1.53.56-.34 1.01-.55 1.42-.74.59-.27 1.09-.5 1.73-1.13.66-.64 1.46-1.71 2.66-3.63l.04-.06c.09-.15.24-.25.39-.28.13-.03.27-.02.4.04h.02l.07.04a.632.632 0 0 1 .2.87c-1.3 2.11-2.2 3.27-2.94 3.99-.76.74-1.35 1.01-2.05 1.32-.38.17-.79.36-1.28.66-.49.31-1.08.74-1.81 1.4-.85.77-1.27 1.44-1.63 2.02l-.04.06c-.36.59-.68 1.11-1.26 1.59-.57.47-1.39.9-2.75 1.29-.17.05-.33.14-.51.3-.2.18-.42.45-.71.86-.31.45-.68 1.06-1.15 1.86-.46.8-1.02 1.8-1.71 3.05.09.59.15 1.2.17 1.83 2.63-1.69 11.04-6.77 21.07-9.62l.03-.01c.96-.22 1.86-.4 2.7-.54.85-.14 1.63-.24 2.38-.3a25.443 25.443 0 0 1 4.14-.01c1.48.12 3.02.36 4.48.76 1.28.35 2.49.83 3.53 1.46.57.34 1.09.73 1.54 1.17.43.41.81.87 1.11 1.38.32.54.57 1.14.71 1.78.14.62.18 1.28.13 1.99-.06.8-.26 1.68-.6 2.62-.33.89-.79 1.84-1.4 2.86-.64 1.06-1.58 1.99-2.74 2.8-1.26.88-2.78 1.62-4.45 2.24-1.85.68-3.89 1.22-5.97 1.63a60.3 60.3 0 0 1-7.09.94c-.8.06-1.58.05-2.35-.02-.79-.08-1.56-.22-2.28-.42-.74-.21-1.45-.48-2.1-.81-.66-.33-1.26-.72-1.78-1.14-.25-.2-.5-.41-.74-.62-.22-.19-.44-.38-.66-.56-1.28-1.1-2.08-1.78-4.3-2.96-.32-.17-.64-.26-.96-.32-.33-.06-.66-.07-.98-.09-.73-.04-1.45-.07-2.2-.44-.44-.22-.88-.55-1.33-1.06-.04.29-.09.57-.15.85.63.2 1.85.66 3.12 1.57.92.65 1.88 1.54 2.67 2.73l.04.07c.34.51.64.99.92 1.43.28.45.53.85.76 1.23.46.75.85 1.39 1.33 2.07.48.68 1.05 1.41 1.87 2.34 2.26 2.56 5.69 2.28 5.75 2.28.17-.01.34.05.46.15.12.11.21.26.22.43.01.17-.05.34-.15.46a.69.69 0 0 1-.43.22c-.06.01-4.12.34-6.8-2.7-.85-.96-1.44-1.72-1.95-2.44-.5-.71-.91-1.38-1.38-2.15-.45-.74-.97-1.58-1.7-2.68-1.65-2.47-4.08-3.46-5.04-3.77-.02.07-.04.15-.07.22.43.29 1.32.92 2.1 1.71.55.56 1.06 1.21 1.33 1.88l.02.05v.01c.04.15.03.3-.02.43-.06.15-.18.27-.35.34l-.05.02h-.03c-.15.04-.3.03-.43-.02a.617.617 0 0 1-.34-.35c-.21-.53-.63-1.05-1.1-1.52-.57-.57-1.2-1.04-1.62-1.33-.06.13-.11.25-.17.38.59.61 1.13 1.32 1.61 2.12.86 1.41 1.55 3.08 2.02 4.93.45 1.78.7 3.74.7 5.78v.01c.45.3 2.78 2.1 2.35 7.24-.07.8-.16 1.51-.26 2.15-.09.61-.2 1.2-.3 1.74v.01c-.13.69-.24 1.3-.3 1.89-.08.75.05 1.7.33 2.74.3 1.14.78 2.39 1.36 3.59.59 1.23 1.29 2.41 2 3.38.66.9 1.33 1.61 1.95 2 .82.53 2.86.23 2.95.22.17-.02.34.02.47.12.13.1.22.24.25.42v.03c.02.16-.03.32-.12.44-.1.13-.24.22-.42.25-.07.01-2.58.38-3.81-.41-.73-.47-1.5-1.27-2.24-2.27-.78-1.05-1.53-2.31-2.17-3.63-.62-1.29-1.13-2.63-1.46-3.88-.3-1.16-.44-2.25-.35-3.13.06-.63.18-1.27.31-1.99v-.02c.18-1.02.4-2.2.53-3.78.26-3.1-.53-4.71-1.14-5.48-.1 1.44-.32 2.82-.65 4.12-.41 1.6-.97 3.06-1.67 4.33l-.01.02v.01c-.11.2-.22.39-.33.58-.88 1.44-1.94 2.61-3.13 3.4l-.01.02a.65.65 0 0 1-.17.27s-.58.57-1.14 1.15c-.28.29-.55.58-.73.8-.05.06-.1.11-.16.17a2.215 2.215 0 0 1-.81.5c-.15.05-.3.09-.46.11v.05l-.26-.02-.26.02v-.05c-.16-.02-.31-.06-.46-.11-.23-.08-.44-.2-.64-.35-.06-.05-.12-.1-.17-.15-.06-.05-.11-.11-.16-.17-.19-.22-.46-.51-.73-.8-.56-.58-1.14-1.15-1.15-1.15a.683.683 0 0 1-.17-.28l-.02-.01c-1.19-.8-2.25-1.96-3.13-3.4-.86-1.41-1.55-3.08-2.02-4.93-.33-1.3-.55-2.68-.65-4.13-.61.76-1.42 2.38-1.15 5.49.13 1.57.35 2.76.53 3.78V68c.13.72.25 1.37.31 2 .09.88-.05 1.96-.35 3.13-.32 1.25-.84 2.6-1.46 3.88-.64 1.32-1.39 2.59-2.17 3.63-.74 1-1.51 1.8-2.24 2.27-1.23.79-3.75.42-3.81.41a.629.629 0 0 1-.41-.25.616.616 0 0 1-.12-.44v-.03a.635.635 0 0 1 .69-.54h.03c.09.01 2.12.31 2.94-.22.62-.4 1.29-1.11 1.95-2 .71-.97 1.41-2.15 2-3.38.58-1.2 1.06-2.45 1.36-3.59.28-1.04.41-1.99.33-2.74-.06-.59-.17-1.2-.3-1.89v-.01c-.1-.54-.21-1.13-.3-1.74-.1-.64-.19-1.35-.26-2.15-.44-5.19 1.95-6.98 2.36-7.25 0-2.04.25-4 .7-5.78.47-1.86 1.16-3.53 2.02-4.93.48-.79 1.02-1.5 1.6-2.11l-.18-.39c-.42.29-1.05.77-1.62 1.33-.47.46-.89.99-1.1 1.52-.06.16-.19.28-.34.35-.15.06-.32.07-.48.01a.683.683 0 0 1-.35-.34.662.662 0 0 1-.01-.48c.27-.68.78-1.32 1.33-1.88.78-.79 1.67-1.42 2.1-1.71-.02-.07-.05-.15-.07-.22-.96.31-3.39 1.3-5.04 3.77-.37.55-.68 1.04-.95 1.47-.27.44-.52.84-.75 1.21-.47.77-.88 1.44-1.38 2.15-.5.72-1.1 1.48-1.95 2.44-2.68 3.04-6.74 2.71-6.8 2.7a.644.644 0 0 1-.43-.22.612.612 0 0 1-.15-.46c.01-.18.1-.33.22-.43.12-.11.29-.16.46-.15.06 0 3.49.29 5.75-2.28.82-.93 1.39-1.66 1.87-2.34.48-.69.87-1.33 1.33-2.07.23-.37.47-.78.76-1.23.28-.44.58-.92.92-1.43l.04-.07c1.18-1.78 2.74-2.88 3.99-3.54.75-.39 1.39-.63 1.8-.75-.06-.28-.1-.56-.15-.85-.45.51-.89.84-1.33 1.06-.75.37-1.46.4-2.2.44-.32.02-.65.03-.98.09-.32.05-.64.15-.96.32-2.22 1.17-3.02 1.86-4.3 2.96-.21.18-.44.38-.66.56-.24.21-.49.42-.74.62-.52.43-1.12.81-1.78 1.14-.65.33-1.36.6-2.1.81-.72.2-1.49.35-2.28.42-.77.07-1.55.08-2.35.02a60.3 60.3 0 0 1-7.09-.94c-2.09-.41-4.13-.95-5.97-1.63-1.67-.62-3.19-1.36-4.45-2.24-1.16-.81-2.1-1.74-2.74-2.8-.61-1.02-1.08-1.97-1.4-2.86-.35-.94-.54-1.81-.6-2.62-.06-.71-.01-1.38.13-1.99.14-.65.38-1.24.71-1.78.3-.51.68-.97 1.11-1.38.46-.44.98-.82 1.54-1.17 1.04-.63 2.25-1.1 3.53-1.46 1.46-.4 3-.64 4.48-.76a25.443 25.443 0 0 1 4.14.01c.74.06 1.53.16 2.38.3.84.14 1.74.32 2.7.54l.03.01c10.03 2.85 18.44 7.93 21.07 9.62.03-.66.09-1.27.18-1.87zm.22-1.13c-.51-.91-.93-1.67-1.3-2.31-.47-.82-.85-1.43-1.17-1.9-.34-.49-.62-.82-.88-1.05a2.03 2.03 0 0 0-.74-.41c-2.45-.71-2.94-1.5-3.57-2.55l-.01-.01c-.39-.64-.84-1.38-1.8-2.25-.78-.7-1.4-1.15-1.92-1.48-.52-.32-.96-.52-1.36-.7-.63-.29-1.17-.53-1.88-1.23-.7-.67-1.54-1.78-2.79-3.78-.01-.02-.04-.04-.07-.05-.03-.01-.06 0-.08.01-.02.02-.04.04-.04.06-.01.03 0 .06.01.08l.01.01c1.27 2.06 2.14 3.19 2.85 3.88.69.67 1.25.92 1.9 1.22.39.18.81.37 1.33.69.52.32 1.13.77 1.89 1.45.47.42.82.82 1.09 1.19.27.36.48.7.67 1.01.34.55.63 1.03 1.14 1.46.52.43 1.28.82 2.56 1.19.24.07.47.19.72.42.23.21.48.51.78.95.32.47.7 1.08 1.17 1.9.4.69.86 1.51 1.41 2.5.03-.08.06-.19.08-.3zm.34.97c.02 0 .04 0 .07-.01.03-.01.04-.04.05-.06.01-.03.01-.06-.01-.08l-.06-.11c-.02.08-.04.17-.05.26zm11.69 2.47c.05-.04.13-.08.22-.14-.01-.62-.05-1.22-.13-1.81-.07.01-.15.01-.22-.01.08.63.13 1.29.13 1.96z" fill="#edd3a0"></path>
        <path d="M53.25 31.68c-1.01-1.61-2.39-2.6-3.9-2.6-1.51 0-2.89.99-3.9 2.6-1.04 1.66-1.69 3.95-1.69 6.5s.64 4.84 1.69 6.5c1.01 1.61 2.39 2.6 3.9 2.6 1.51 0 2.89-.99 3.9-2.6 1.04-1.66 1.69-3.95 1.69-6.5s-.65-4.84-1.69-6.5m-3.89-3.34c1.78 0 3.38 1.13 4.52 2.95 1.11 1.77 1.8 4.21 1.8 6.89 0 2.69-.69 5.12-1.8 6.89-1.15 1.82-2.74 2.95-4.52 2.95-1.78 0-3.38-1.13-4.52-2.95-1.11-1.77-1.8-4.21-1.8-6.89 0-2.69.69-5.12 1.8-6.89 1.14-1.82 2.74-2.95 4.52-2.95z" fill="#edd3a0"></path>
        <path d="M55.4 46.87c-1.56-2.55-3.69-4.12-6.04-4.12-2.34 0-4.48 1.58-6.04 4.12-1.59 2.6-2.58 6.21-2.58 10.19 0 3.99.98 7.59 2.58 10.19 1.56 2.55 3.69 4.12 6.04 4.12 2.34 0 4.48-1.58 6.04-4.12 1.59-2.6 2.58-6.21 2.58-10.19 0-3.99-.99-7.59-2.58-10.19M49.36 42c2.62 0 4.98 1.71 6.67 4.48 1.66 2.71 2.69 6.45 2.69 10.58 0 4.12-1.03 7.87-2.69 10.58-1.69 2.77-4.05 4.48-6.67 4.48s-4.98-1.71-6.67-4.48C41.03 64.93 40 61.19 40 57.06c0-4.12 1.03-7.87 2.69-10.58 1.7-2.77 4.05-4.48 6.67-4.48z" fill="#edd3a0"></path>
        <path d="M58.41 57.9a.375.375 0 0 1-.14-.51c.1-.18.33-.24.5-.14.01 0 2.76 1.52 2.29 7.03-.13 1.59-.36 2.82-.55 3.87-.13.7-.24 1.32-.3 1.92-.17 1.63.59 4.14 1.72 6.48 1.17 2.42 2.72 4.63 4.05 5.49.92.59 3.12.26 3.13.26.2-.03.39.11.42.31.03.2-.11.39-.32.42-.01 0-2.47.37-3.63-.37-1.45-.93-3.1-3.26-4.32-5.79-1.18-2.45-1.97-5.1-1.79-6.87.06-.62.18-1.26.31-1.98.19-1.03.4-2.23.54-3.8.44-5.03-1.9-6.32-1.91-6.32" fill="#edd3a0"></path>
        <path d="M54.99 42.04a.373.373 0 0 1-.28-.44c.05-.2.24-.32.44-.28.01 0 3.76.84 6.06 4.31.74 1.1 1.26 1.96 1.72 2.71.92 1.5 1.58 2.58 3.23 4.45 2.36 2.68 5.96 2.36 5.97 2.36.2-.02.38.14.4.34.01.2-.14.38-.34.4-.01 0-3.97.35-6.58-2.61-1.69-1.91-2.36-3.02-3.3-4.55-.45-.74-.97-1.59-1.71-2.69-2.15-3.22-5.6-3.99-5.61-4" fill="#edd3a0"></path>
        <path d="M54.49 43.32a.371.371 0 0 1-.12-.51c.11-.17.33-.23.51-.13.01 0 2.83 1.73 3.6 3.64.08.19-.02.41-.21.48a.365.365 0 0 1-.48-.21c-.69-1.67-3.3-3.27-3.3-3.27" fill="#edd3a0"></path>
        <path d="M55.51 35.71c-.1.18-.32.24-.5.15s-.24-.32-.15-.5c1.41-2.55 2.28-4.09 2.93-5.03.7-1.02 1.18-1.39 1.76-1.56 2.36-.69 2.82-1.44 3.43-2.44.4-.66.86-1.41 1.85-2.31 1.58-1.42 2.53-1.86 3.35-2.23 1.22-.55 2.09-.95 4.54-4.92.11-.17.34-.23.51-.12.17.11.23.34.12.51-2.58 4.17-3.53 4.6-4.87 5.21-.76.35-1.66.76-3.16 2.1-.91.82-1.34 1.53-1.72 2.14-.69 1.14-1.22 2-3.86 2.77-.41.12-.77.42-1.36 1.27-.6.91-1.47 2.43-2.87 4.96" fill="#edd3a0"></path>
        <path d="M40.55 61.22a.377.377 0 0 1-.21-.48c.08-.19.29-.28.48-.21 3.02 1.21 4.43.91 5.99.58.83-.18 1.7-.36 2.86-.35.65.01 1.5.21 2.45.43 1.93.45 4.26 1 5.59.08.17-.12.4-.07.52.09.12.17.07.4-.09.52-1.6 1.11-4.11.52-6.18.04-.91-.21-1.73-.41-2.29-.41-1.07-.01-1.9.17-2.7.33-1.68.35-3.19.67-6.42-.62" fill="#edd3a0"></path>
        <path d="M42.52 66.97a.37.37 0 0 1-.27-.45c.05-.2.25-.32.45-.27 1.87.47 2.99.13 4.16-.22.88-.26 1.78-.54 3.03-.52.65.01 1.5.21 2.45.43 1.19.28 2.54.59 3.71.58a.37.37 0 1 1 0 .74c-1.26.02-2.66-.31-3.89-.6-.91-.21-1.73-.4-2.29-.41-1.13-.01-1.99.25-2.81.5-1.26.37-2.48.74-4.54.22" fill="#edd3a0"></path>
        <path d="M40.25 56.84a.365.365 0 0 1-.21-.48c.07-.19.29-.29.48-.21 3.11 1.19 4.56.84 6.13.47.89-.21 1.81-.43 3.06-.42.67.01 1.57.21 2.56.43 2.02.45 4.48 1 5.88.07a.368.368 0 0 1 .41.61c-1.67 1.1-4.29.52-6.45.03-.95-.21-1.81-.41-2.4-.41-1.17-.01-2.04.2-2.88.4-1.7.4-3.26.78-6.58-.49" fill="#edd3a0"></path>
        <path d="M52.24 70.75c.15-.14.38-.14.52.01.14.15.14.38-.01.52 0 0-1.33 1.3-1.9 1.97-.08.1-.18.19-.29.28-.34.26-.77.41-1.2.43-.43-.02-.87-.17-1.2-.43-.11-.08-.2-.18-.29-.28-.57-.68-1.89-1.97-1.9-1.97a.365.365 0 0 1-.01-.52c.14-.15.38-.15.52-.01 0 0 1.37 1.33 1.95 2.03.05.06.11.12.17.17.21.16.48.26.75.27.27-.01.54-.11.75-.27.06-.05.12-.1.17-.17.6-.7 1.96-2.03 1.97-2.03" fill="#edd3a0"></path>
        <path d="M21.44 28.98c10.78 3.06 19.65 8.74 21.34 9.85-1.19 1.89-2.29 1.95-3.44 2.01-.75.04-1.52.08-2.36.52-2.32 1.23-3.15 1.94-4.49 3.08-.39.33-.82.7-1.39 1.17-.94.77-2.15 1.38-3.52 1.76-1.31.37-2.77.52-4.28.41-4.18-.31-8.93-1.09-12.8-2.52-3.01-1.11-5.48-2.62-6.68-4.62-1.18-1.96-1.75-3.63-1.86-5.04-.1-1.25.17-2.3.69-3.18.53-.89 1.34-1.62 2.31-2.2 2.08-1.25 4.92-1.86 7.56-2.07 1.24-.1 2.53-.11 3.98.02 1.46.12 3.07.37 4.94.81m22.05 9.43c-.03-.02-9.76-6.72-21.85-10.15h-.02c-1.92-.44-3.56-.71-5.04-.83-1.49-.13-2.81-.12-4.1-.02-2.74.21-5.7.86-7.89 2.18-1.07.65-1.96 1.46-2.56 2.46-.61 1.01-.91 2.21-.8 3.62.12 1.53.73 3.3 1.97 5.37 1.3 2.15 3.9 3.76 7.06 4.93 3.93 1.45 8.76 2.24 13 2.56 1.6.12 3.14-.05 4.54-.44 1.46-.41 2.77-1.07 3.79-1.9.52-.43.99-.82 1.4-1.18 1.3-1.11 2.11-1.8 4.35-2.99.69-.37 1.38-.4 2.05-.44 1.41-.07 2.77-.14 4.22-2.67l.17-.3-.29-.2z" fill="#edd3a0"></path>
        <path d="M40.3 57.9a.375.375 0 0 0-.37-.65c-.01 0-2.76 1.52-2.29 7.03.13 1.59.36 2.82.55 3.87.13.7.24 1.32.3 1.92.17 1.63-.59 4.14-1.72 6.48-1.17 2.42-2.72 4.63-4.05 5.49-.92.59-3.12.26-3.13.26-.2-.03-.39.11-.42.31-.03.2.11.39.31.42.01 0 2.47.37 3.63-.37 1.45-.93 3.1-3.26 4.32-5.79 1.18-2.45 1.97-5.1 1.79-6.87-.06-.62-.18-1.26-.31-1.98-.19-1.03-.4-2.23-.54-3.8-.41-5.03 1.92-6.32 1.93-6.32" fill="#edd3a0"></path>
        <path d="M43.72 42.04c.2-.04.33-.24.28-.44a.373.373 0 0 0-.44-.28c-.01 0-3.75.84-6.06 4.31-.74 1.1-1.26 1.96-1.72 2.71-.92 1.5-1.58 2.58-3.23 4.45-2.36 2.68-5.96 2.36-5.97 2.36-.2-.02-.38.14-.4.34-.02.2.14.38.34.4.01 0 3.97.35 6.58-2.61 1.69-1.91 2.36-3.02 3.3-4.55.45-.74.97-1.59 1.71-2.69 2.15-3.22 5.6-3.99 5.61-4" fill="#edd3a0"></path>
        <path d="M44.23 43.32c.17-.11.23-.33.12-.51a.383.383 0 0 0-.51-.13c-.01 0-2.83 1.73-3.6 3.64-.08.19.02.41.21.48.19.08.41-.02.48-.21.68-1.67 3.29-3.27 3.3-3.27" fill="#edd3a0"></path>
        <path d="M43.2 35.71c.1.18.32.24.5.15.18-.1.24-.32.15-.5-1.41-2.55-2.28-4.09-2.93-5.03-.7-1.02-1.18-1.39-1.76-1.56-2.36-.69-2.82-1.44-3.43-2.44-.4-.66-.86-1.41-1.85-2.31-1.58-1.42-2.53-1.86-3.35-2.23-1.22-.55-2.09-.95-4.54-4.92a.373.373 0 0 0-.51-.12c-.17.11-.23.34-.12.51 2.58 4.17 3.53 4.6 4.87 5.21.76.35 1.66.76 3.16 2.1.91.82 1.34 1.53 1.72 2.14.69 1.14 1.22 2 3.85 2.77.41.12.77.42 1.36 1.27.62.91 1.48 2.43 2.88 4.96" fill="#edd3a0"></path>
    </g>
</svg>